G04 #@! TF.GenerationSoftware,KiCad,Pcbnew,(5.1.2)-1*
G04 #@! TF.CreationDate,2020-04-24T17:20:08+09:00*
G04 #@! TF.ProjectId,ns,6e732e6b-6963-4616-945f-706362585858,v1.0*
G04 #@! TF.SameCoordinates,Original*
G04 #@! TF.FileFunction,Legend,Bot*
G04 #@! TF.FilePolarity,Positive*
%FSLAX46Y46*%
G04 Gerber Fmt 4.6, Leading zero omitted, Abs format (unit mm)*
G04 Created by KiCad (PCBNEW (5.1.2)-1) date 2020-04-24 17:20:08*
%MOMM*%
%LPD*%
G04 APERTURE LIST*
%ADD10C,0.120000*%
%ADD11C,0.150000*%
%ADD12O,1.802000X1.802000*%
%ADD13R,1.802000X1.802000*%
%ADD14C,3.302000*%
G04 APERTURE END LIST*
D10*
X174200000Y-58770000D02*
X172870000Y-58770000D01*
X172870000Y-58770000D02*
X172870000Y-60100000D01*
X175470000Y-58770000D02*
X175470000Y-61370000D01*
X175470000Y-61370000D02*
X172870000Y-61370000D01*
X172870000Y-61370000D02*
X172870000Y-150330000D01*
X178070000Y-150330000D02*
X172870000Y-150330000D01*
X178070000Y-58770000D02*
X178070000Y-150330000D01*
X178070000Y-58770000D02*
X175470000Y-58770000D01*
X166600000Y-86670000D02*
X165270000Y-86670000D01*
X165270000Y-86670000D02*
X165270000Y-88000000D01*
X167870000Y-86670000D02*
X167870000Y-89270000D01*
X167870000Y-89270000D02*
X165270000Y-89270000D01*
X165270000Y-89270000D02*
X165270000Y-129970000D01*
X170470000Y-129970000D02*
X165270000Y-129970000D01*
X170470000Y-86670000D02*
X170470000Y-129970000D01*
X170470000Y-86670000D02*
X167870000Y-86670000D01*
X166600000Y-59770000D02*
X165270000Y-59770000D01*
X165270000Y-59770000D02*
X165270000Y-61100000D01*
X167870000Y-59770000D02*
X167870000Y-62370000D01*
X167870000Y-62370000D02*
X165270000Y-62370000D01*
X165270000Y-62370000D02*
X165270000Y-85290000D01*
X170470000Y-85290000D02*
X165270000Y-85290000D01*
X170470000Y-59770000D02*
X170470000Y-85290000D01*
X170470000Y-59770000D02*
X167870000Y-59770000D01*
X120900000Y-91670000D02*
X119570000Y-91670000D01*
X119570000Y-91670000D02*
X119570000Y-93000000D01*
X122170000Y-91670000D02*
X122170000Y-94270000D01*
X122170000Y-94270000D02*
X119570000Y-94270000D01*
X119570000Y-94270000D02*
X119570000Y-129890000D01*
X124770000Y-129890000D02*
X119570000Y-129890000D01*
X124770000Y-91670000D02*
X124770000Y-129890000D01*
X124770000Y-91670000D02*
X122170000Y-91670000D01*
X120900000Y-68890000D02*
X119570000Y-68890000D01*
X119570000Y-68890000D02*
X119570000Y-70220000D01*
X122170000Y-68890000D02*
X122170000Y-71490000D01*
X122170000Y-71490000D02*
X119570000Y-71490000D01*
X119570000Y-71490000D02*
X119570000Y-89330000D01*
X124770000Y-89330000D02*
X119570000Y-89330000D01*
X124770000Y-68890000D02*
X124770000Y-89330000D01*
X124770000Y-68890000D02*
X122170000Y-68890000D01*
X113260000Y-58770000D02*
X111930000Y-58770000D01*
X111930000Y-58770000D02*
X111930000Y-60100000D01*
X114530000Y-58770000D02*
X114530000Y-61370000D01*
X114530000Y-61370000D02*
X111930000Y-61370000D01*
X111930000Y-61370000D02*
X111930000Y-150330000D01*
X117130000Y-150330000D02*
X111930000Y-150330000D01*
X117130000Y-58770000D02*
X117130000Y-150330000D01*
X117130000Y-58770000D02*
X114530000Y-58770000D01*
D11*
X176184285Y-57496666D02*
X175708095Y-57496666D01*
X176279523Y-57782380D02*
X175946190Y-56782380D01*
X175612857Y-57782380D01*
X174850952Y-56782380D02*
X175041428Y-56782380D01*
X175136666Y-56830000D01*
X175184285Y-56877619D01*
X175279523Y-57020476D01*
X175327142Y-57210952D01*
X175327142Y-57591904D01*
X175279523Y-57687142D01*
X175231904Y-57734761D01*
X175136666Y-57782380D01*
X174946190Y-57782380D01*
X174850952Y-57734761D01*
X174803333Y-57687142D01*
X174755714Y-57591904D01*
X174755714Y-57353809D01*
X174803333Y-57258571D01*
X174850952Y-57210952D01*
X174946190Y-57163333D01*
X175136666Y-57163333D01*
X175231904Y-57210952D01*
X175279523Y-57258571D01*
X175327142Y-57353809D01*
X168584285Y-85396666D02*
X168108095Y-85396666D01*
X168679523Y-85682380D02*
X168346190Y-84682380D01*
X168012857Y-85682380D01*
X167203333Y-84682380D02*
X167679523Y-84682380D01*
X167727142Y-85158571D01*
X167679523Y-85110952D01*
X167584285Y-85063333D01*
X167346190Y-85063333D01*
X167250952Y-85110952D01*
X167203333Y-85158571D01*
X167155714Y-85253809D01*
X167155714Y-85491904D01*
X167203333Y-85587142D01*
X167250952Y-85634761D01*
X167346190Y-85682380D01*
X167584285Y-85682380D01*
X167679523Y-85634761D01*
X167727142Y-85587142D01*
X168584285Y-58496666D02*
X168108095Y-58496666D01*
X168679523Y-58782380D02*
X168346190Y-57782380D01*
X168012857Y-58782380D01*
X167250952Y-58115714D02*
X167250952Y-58782380D01*
X167489047Y-57734761D02*
X167727142Y-58449047D01*
X167108095Y-58449047D01*
X122884285Y-90396666D02*
X122408095Y-90396666D01*
X122979523Y-90682380D02*
X122646190Y-89682380D01*
X122312857Y-90682380D01*
X122074761Y-89682380D02*
X121455714Y-89682380D01*
X121789047Y-90063333D01*
X121646190Y-90063333D01*
X121550952Y-90110952D01*
X121503333Y-90158571D01*
X121455714Y-90253809D01*
X121455714Y-90491904D01*
X121503333Y-90587142D01*
X121550952Y-90634761D01*
X121646190Y-90682380D01*
X121931904Y-90682380D01*
X122027142Y-90634761D01*
X122074761Y-90587142D01*
X122884285Y-67616666D02*
X122408095Y-67616666D01*
X122979523Y-67902380D02*
X122646190Y-66902380D01*
X122312857Y-67902380D01*
X122027142Y-66997619D02*
X121979523Y-66950000D01*
X121884285Y-66902380D01*
X121646190Y-66902380D01*
X121550952Y-66950000D01*
X121503333Y-66997619D01*
X121455714Y-67092857D01*
X121455714Y-67188095D01*
X121503333Y-67330952D01*
X122074761Y-67902380D01*
X121455714Y-67902380D01*
X115244285Y-57496666D02*
X114768095Y-57496666D01*
X115339523Y-57782380D02*
X115006190Y-56782380D01*
X114672857Y-57782380D01*
X113815714Y-57782380D02*
X114387142Y-57782380D01*
X114101428Y-57782380D02*
X114101428Y-56782380D01*
X114196666Y-56925238D01*
X114291904Y-57020476D01*
X114387142Y-57068095D01*
%LPC*%
D12*
X176740000Y-149000000D03*
X174200000Y-149000000D03*
X176740000Y-146460000D03*
X174200000Y-146460000D03*
X176740000Y-143920000D03*
X174200000Y-143920000D03*
X176740000Y-141380000D03*
X174200000Y-141380000D03*
X176740000Y-138840000D03*
X174200000Y-138840000D03*
X176740000Y-136300000D03*
X174200000Y-136300000D03*
X176740000Y-133760000D03*
X174200000Y-133760000D03*
X176740000Y-131220000D03*
X174200000Y-131220000D03*
X176740000Y-128680000D03*
X174200000Y-128680000D03*
X176740000Y-126140000D03*
X174200000Y-126140000D03*
X176740000Y-123600000D03*
X174200000Y-123600000D03*
X176740000Y-121060000D03*
X174200000Y-121060000D03*
X176740000Y-118520000D03*
X174200000Y-118520000D03*
X176740000Y-115980000D03*
X174200000Y-115980000D03*
X176740000Y-113440000D03*
X174200000Y-113440000D03*
X176740000Y-110900000D03*
X174200000Y-110900000D03*
X176740000Y-108360000D03*
X174200000Y-108360000D03*
X176740000Y-105820000D03*
X174200000Y-105820000D03*
X176740000Y-103280000D03*
X174200000Y-103280000D03*
X176740000Y-100740000D03*
X174200000Y-100740000D03*
X176740000Y-98200000D03*
X174200000Y-98200000D03*
X176740000Y-95660000D03*
X174200000Y-95660000D03*
X176740000Y-93120000D03*
X174200000Y-93120000D03*
X176740000Y-90580000D03*
X174200000Y-90580000D03*
X176740000Y-88040000D03*
X174200000Y-88040000D03*
X176740000Y-85500000D03*
X174200000Y-85500000D03*
X176740000Y-82960000D03*
X174200000Y-82960000D03*
X176740000Y-80420000D03*
X174200000Y-80420000D03*
X176740000Y-77880000D03*
X174200000Y-77880000D03*
X176740000Y-75340000D03*
X174200000Y-75340000D03*
X176740000Y-72800000D03*
X174200000Y-72800000D03*
X176740000Y-70260000D03*
X174200000Y-70260000D03*
X176740000Y-67720000D03*
X174200000Y-67720000D03*
X176740000Y-65180000D03*
X174200000Y-65180000D03*
X176740000Y-62640000D03*
X174200000Y-62640000D03*
X176740000Y-60100000D03*
D13*
X174200000Y-60100000D03*
D12*
X169140000Y-128640000D03*
X166600000Y-128640000D03*
X169140000Y-126100000D03*
X166600000Y-126100000D03*
X169140000Y-123560000D03*
X166600000Y-123560000D03*
X169140000Y-121020000D03*
X166600000Y-121020000D03*
X169140000Y-118480000D03*
X166600000Y-118480000D03*
X169140000Y-115940000D03*
X166600000Y-115940000D03*
X169140000Y-113400000D03*
X166600000Y-113400000D03*
X169140000Y-110860000D03*
X166600000Y-110860000D03*
X169140000Y-108320000D03*
X166600000Y-108320000D03*
X169140000Y-105780000D03*
X166600000Y-105780000D03*
X169140000Y-103240000D03*
X166600000Y-103240000D03*
X169140000Y-100700000D03*
X166600000Y-100700000D03*
X169140000Y-98160000D03*
X166600000Y-98160000D03*
X169140000Y-95620000D03*
X166600000Y-95620000D03*
X169140000Y-93080000D03*
X166600000Y-93080000D03*
X169140000Y-90540000D03*
X166600000Y-90540000D03*
X169140000Y-88000000D03*
D13*
X166600000Y-88000000D03*
D12*
X169140000Y-83960000D03*
X166600000Y-83960000D03*
X169140000Y-81420000D03*
X166600000Y-81420000D03*
X169140000Y-78880000D03*
X166600000Y-78880000D03*
X169140000Y-76340000D03*
X166600000Y-76340000D03*
X169140000Y-73800000D03*
X166600000Y-73800000D03*
X169140000Y-71260000D03*
X166600000Y-71260000D03*
X169140000Y-68720000D03*
X166600000Y-68720000D03*
X169140000Y-66180000D03*
X166600000Y-66180000D03*
X169140000Y-63640000D03*
X166600000Y-63640000D03*
X169140000Y-61100000D03*
D13*
X166600000Y-61100000D03*
D12*
X123440000Y-128560000D03*
X120900000Y-128560000D03*
X123440000Y-126020000D03*
X120900000Y-126020000D03*
X123440000Y-123480000D03*
X120900000Y-123480000D03*
X123440000Y-120940000D03*
X120900000Y-120940000D03*
X123440000Y-118400000D03*
X120900000Y-118400000D03*
X123440000Y-115860000D03*
X120900000Y-115860000D03*
X123440000Y-113320000D03*
X120900000Y-113320000D03*
X123440000Y-110780000D03*
X120900000Y-110780000D03*
X123440000Y-108240000D03*
X120900000Y-108240000D03*
X123440000Y-105700000D03*
X120900000Y-105700000D03*
X123440000Y-103160000D03*
X120900000Y-103160000D03*
X123440000Y-100620000D03*
X120900000Y-100620000D03*
X123440000Y-98080000D03*
X120900000Y-98080000D03*
X123440000Y-95540000D03*
X120900000Y-95540000D03*
X123440000Y-93000000D03*
D13*
X120900000Y-93000000D03*
D12*
X123440000Y-88000000D03*
X120900000Y-88000000D03*
X123440000Y-85460000D03*
X120900000Y-85460000D03*
X123440000Y-82920000D03*
X120900000Y-82920000D03*
X123440000Y-80380000D03*
X120900000Y-80380000D03*
X123440000Y-77840000D03*
X120900000Y-77840000D03*
X123440000Y-75300000D03*
X120900000Y-75300000D03*
X123440000Y-72760000D03*
X120900000Y-72760000D03*
X123440000Y-70220000D03*
D13*
X120900000Y-70220000D03*
D12*
X115800000Y-149000000D03*
X113260000Y-149000000D03*
X115800000Y-146460000D03*
X113260000Y-146460000D03*
X115800000Y-143920000D03*
X113260000Y-143920000D03*
X115800000Y-141380000D03*
X113260000Y-141380000D03*
X115800000Y-138840000D03*
X113260000Y-138840000D03*
X115800000Y-136300000D03*
X113260000Y-136300000D03*
X115800000Y-133760000D03*
X113260000Y-133760000D03*
X115800000Y-131220000D03*
X113260000Y-131220000D03*
X115800000Y-128680000D03*
X113260000Y-128680000D03*
X115800000Y-126140000D03*
X113260000Y-126140000D03*
X115800000Y-123600000D03*
X113260000Y-123600000D03*
X115800000Y-121060000D03*
X113260000Y-121060000D03*
X115800000Y-118520000D03*
X113260000Y-118520000D03*
X115800000Y-115980000D03*
X113260000Y-115980000D03*
X115800000Y-113440000D03*
X113260000Y-113440000D03*
X115800000Y-110900000D03*
X113260000Y-110900000D03*
X115800000Y-108360000D03*
X113260000Y-108360000D03*
X115800000Y-105820000D03*
X113260000Y-105820000D03*
X115800000Y-103280000D03*
X113260000Y-103280000D03*
X115800000Y-100740000D03*
X113260000Y-100740000D03*
X115800000Y-98200000D03*
X113260000Y-98200000D03*
X115800000Y-95660000D03*
X113260000Y-95660000D03*
X115800000Y-93120000D03*
X113260000Y-93120000D03*
X115800000Y-90580000D03*
X113260000Y-90580000D03*
X115800000Y-88040000D03*
X113260000Y-88040000D03*
X115800000Y-85500000D03*
X113260000Y-85500000D03*
X115800000Y-82960000D03*
X113260000Y-82960000D03*
X115800000Y-80420000D03*
X113260000Y-80420000D03*
X115800000Y-77880000D03*
X113260000Y-77880000D03*
X115800000Y-75340000D03*
X113260000Y-75340000D03*
X115800000Y-72800000D03*
X113260000Y-72800000D03*
X115800000Y-70260000D03*
X113260000Y-70260000D03*
X115800000Y-67720000D03*
X113260000Y-67720000D03*
X115800000Y-65180000D03*
X113260000Y-65180000D03*
X115800000Y-62640000D03*
X113260000Y-62640000D03*
X115800000Y-60100000D03*
D13*
X113260000Y-60100000D03*
D14*
X167900000Y-132500000D03*
X153900000Y-108300000D03*
X122100000Y-132400000D03*
X169100000Y-57500000D03*
X120900000Y-56200000D03*
M02*
