M48
; DRILL file {KiCad (5.1.2)-1} date 2020/04/24 17:20:14
; FORMAT={-:-/ absolute / metric / decimal}
; #@! TF.CreationDate,2020-04-24T17:20:14+09:00
; #@! TF.GenerationSoftware,Kicad,Pcbnew,(5.1.2)-1
FMAT,2
METRIC
T1C0.400
T2C1.000
T3C3.200
%
G90
G05
T1
X118.849Y-120.84
X124.5Y-60.2
X125.924Y-120.87
X126.0Y-79.1
X126.841Y-121.717
X127.349Y-117.726
X127.363Y-113.724
X127.389Y-125.512
X127.661Y-109.701
X127.695Y-79.564
X127.885Y-140.132
X127.905Y-141.897
X128.095Y-99.366
X128.095Y-91.508
X128.095Y-90.037
X129.1Y-62.2
X130.061Y-117.23
X130.082Y-78.708
X130.1Y-68.1
X130.36Y-116.278
X130.426Y-101.873
X130.564Y-130.645
X130.564Y-140.278
X130.565Y-138.373
X130.567Y-129.693
X130.568Y-128.2
X130.569Y-135.4
X130.576Y-139.325
X130.742Y-97.685
X130.785Y-88.706
X130.792Y-89.814
X130.874Y-87.448
X130.892Y-109.771
X131.225Y-115.365
X131.275Y-102.371
X131.332Y-125.496
X131.385Y-98.648
X131.536Y-86.715
X131.882Y-83.514
X132.267Y-104.101
X132.349Y-96.173
X132.422Y-86.255
X132.664Y-99.212
X132.742Y-122.712
X132.945Y-97.558
X133.35Y-124.336
X133.495Y-141.946
X133.541Y-68.88
X133.995Y-142.844
X134.05Y-71.775
X134.187Y-75.742
X134.202Y-97.804
X134.224Y-64.114
X134.574Y-102.443
X134.623Y-141.643
X134.865Y-140.37
X135.823Y-88.541
X135.869Y-139.321
X136.028Y-87.589
X136.177Y-135.164
X136.2Y-144.9
X136.538Y-89.302
X136.712Y-92.929
X136.743Y-108.549
X136.757Y-98.473
X136.786Y-107.597
X137.017Y-100.99
X137.187Y-88.435
X137.4Y-63.8
X138.046Y-110.831
X138.11Y-86.104
X138.255Y-78.897
X138.273Y-83.991
X138.4Y-89.068
X138.468Y-134.704
X138.617Y-90.828
X138.76Y-125.066
X138.826Y-122.796
X138.832Y-81.644
X139.076Y-95.611
X139.269Y-90.132
X139.304Y-130.6
X139.37Y-126.33
X139.426Y-141.46
X139.431Y-127.4
X139.492Y-67.266
X140.411Y-81.83
X140.793Y-79.783
X141.209Y-72.906
X141.423Y-83.465
X141.904Y-84.392
X141.905Y-89.277
X141.908Y-90.389
X141.916Y-96.55
X141.918Y-86.913
X141.942Y-93.9
X142.021Y-104.101
X142.059Y-131.983
X142.073Y-130.527
X142.076Y-136.2
X142.082Y-134.72
X142.105Y-94.967
X142.11Y-137.162
X142.134Y-109.708
X142.337Y-127.894
X142.424Y-88.38
X142.703Y-101.721
X142.791Y-77.553
X143.095Y-121.637
X143.141Y-90.727
X143.161Y-84.832
X143.181Y-131.82
X143.205Y-108.321
X143.475Y-86.408
X143.476Y-113.646
X144.278Y-132.024
X144.415Y-99.734
X145.101Y-119.081
X145.517Y-113.044
X145.567Y-78.974
X145.8Y-59.7
X146.0Y-91.117
X146.388Y-128.25
X146.478Y-82.412
X146.48Y-103.928
X146.598Y-78.568
X146.902Y-126.229
X146.909Y-140.832
X146.919Y-143.3
X146.921Y-129.071
X146.922Y-130.946
X147.053Y-81.639
X147.064Y-97.251
X147.144Y-98.688
X147.177Y-93.784
X147.226Y-79.521
X147.244Y-102.26
X147.343Y-112.942
X147.545Y-99.963
X147.585Y-86.136
X149.067Y-120.821
X149.132Y-102.067
X149.264Y-83.395
X149.558Y-140.273
X149.56Y-141.689
X149.564Y-138.368
X149.567Y-128.237
X149.799Y-113.896
X149.839Y-81.294
X149.878Y-139.321
X150.23Y-96.082
X150.237Y-99.361
X150.239Y-123.325
X150.24Y-91.432
X150.246Y-87.792
X150.252Y-73.958
X150.334Y-98.408
X150.868Y-119.931
X150.88Y-72.847
X150.896Y-97.193
X151.273Y-124.667
X151.377Y-104.674
X151.596Y-72.19
X151.641Y-103.062
X151.786Y-133.785
X151.973Y-81.719
X152.115Y-100.377
X152.13Y-112.437
X152.473Y-101.913
X152.774Y-103.191
X153.107Y-67.438
X153.659Y-64.25
X154.067Y-100.129
X154.416Y-88.489
X154.633Y-105.785
X154.74Y-90.801
X155.385Y-92.414
X155.422Y-83.374
X156.163Y-110.93
X156.4Y-120.8
X156.401Y-92.259
X157.174Y-88.185
X157.454Y-81.722
X157.519Y-96.456
X157.587Y-95.437
X157.716Y-127.36
X157.791Y-125.521
X157.991Y-133.879
X158.229Y-114.74
X158.34Y-132.013
X158.389Y-91.6
X158.415Y-126.707
X158.418Y-128.359
X158.438Y-132.979
X158.441Y-130.724
X158.441Y-141.047
X158.491Y-92.689
X158.575Y-83.133
X158.583Y-95.541
X158.7Y-148.4
X158.744Y-84.113
X158.758Y-86.509
X158.761Y-94.259
X159.112Y-111.905
X160.043Y-113.453
X160.088Y-104.639
X160.779Y-122.076
X161.059Y-135.885
X161.061Y-136.9
X161.065Y-134.499
X161.071Y-131.714
X161.298Y-139.438
X161.312Y-142.131
X161.384Y-122.831
X161.407Y-93.998
X162.9Y-69.0
X163.292Y-97.818
X164.226Y-135.046
X164.589Y-118.864
X166.369Y-136.262
X166.47Y-85.365
T2
X166.6Y-88.0
X166.6Y-90.54
X166.6Y-93.08
X166.6Y-95.62
X166.6Y-98.16
X166.6Y-100.7
X166.6Y-103.24
X166.6Y-105.78
X166.6Y-108.32
X166.6Y-110.86
X166.6Y-113.4
X166.6Y-115.94
X166.6Y-118.48
X166.6Y-121.02
X166.6Y-123.56
X166.6Y-126.1
X166.6Y-128.64
X169.14Y-88.0
X169.14Y-90.54
X169.14Y-93.08
X169.14Y-95.62
X169.14Y-98.16
X169.14Y-100.7
X169.14Y-103.24
X169.14Y-105.78
X169.14Y-108.32
X169.14Y-110.86
X169.14Y-113.4
X169.14Y-115.94
X169.14Y-118.48
X169.14Y-121.02
X169.14Y-123.56
X169.14Y-126.1
X169.14Y-128.64
X120.9Y-70.22
X120.9Y-72.76
X120.9Y-75.3
X120.9Y-77.84
X120.9Y-80.38
X120.9Y-82.92
X120.9Y-85.46
X120.9Y-88.0
X123.44Y-70.22
X123.44Y-72.76
X123.44Y-75.3
X123.44Y-77.84
X123.44Y-80.38
X123.44Y-82.92
X123.44Y-85.46
X123.44Y-88.0
X120.9Y-93.0
X120.9Y-95.54
X120.9Y-98.08
X120.9Y-100.62
X120.9Y-103.16
X120.9Y-105.7
X120.9Y-108.24
X120.9Y-110.78
X120.9Y-113.32
X120.9Y-115.86
X120.9Y-118.4
X120.9Y-120.94
X120.9Y-123.48
X120.9Y-126.02
X120.9Y-128.56
X123.44Y-93.0
X123.44Y-95.54
X123.44Y-98.08
X123.44Y-100.62
X123.44Y-103.16
X123.44Y-105.7
X123.44Y-108.24
X123.44Y-110.78
X123.44Y-113.32
X123.44Y-115.86
X123.44Y-118.4
X123.44Y-120.94
X123.44Y-123.48
X123.44Y-126.02
X123.44Y-128.56
X174.2Y-60.1
X174.2Y-62.64
X174.2Y-65.18
X174.2Y-67.72
X174.2Y-70.26
X174.2Y-72.8
X174.2Y-75.34
X174.2Y-77.88
X174.2Y-80.42
X174.2Y-82.96
X174.2Y-85.5
X174.2Y-88.04
X174.2Y-90.58
X174.2Y-93.12
X174.2Y-95.66
X174.2Y-98.2
X174.2Y-100.74
X174.2Y-103.28
X174.2Y-105.82
X174.2Y-108.36
X174.2Y-110.9
X174.2Y-113.44
X174.2Y-115.98
X174.2Y-118.52
X174.2Y-121.06
X174.2Y-123.6
X174.2Y-126.14
X174.2Y-128.68
X174.2Y-131.22
X174.2Y-133.76
X174.2Y-136.3
X174.2Y-138.84
X174.2Y-141.38
X174.2Y-143.92
X174.2Y-146.46
X174.2Y-149.0
X176.74Y-60.1
X176.74Y-62.64
X176.74Y-65.18
X176.74Y-67.72
X176.74Y-70.26
X176.74Y-72.8
X176.74Y-75.34
X176.74Y-77.88
X176.74Y-80.42
X176.74Y-82.96
X176.74Y-85.5
X176.74Y-88.04
X176.74Y-90.58
X176.74Y-93.12
X176.74Y-95.66
X176.74Y-98.2
X176.74Y-100.74
X176.74Y-103.28
X176.74Y-105.82
X176.74Y-108.36
X176.74Y-110.9
X176.74Y-113.44
X176.74Y-115.98
X176.74Y-118.52
X176.74Y-121.06
X176.74Y-123.6
X176.74Y-126.14
X176.74Y-128.68
X176.74Y-131.22
X176.74Y-133.76
X176.74Y-136.3
X176.74Y-138.84
X176.74Y-141.38
X176.74Y-143.92
X176.74Y-146.46
X176.74Y-149.0
X113.26Y-60.1
X113.26Y-62.64
X113.26Y-65.18
X113.26Y-67.72
X113.26Y-70.26
X113.26Y-72.8
X113.26Y-75.34
X113.26Y-77.88
X113.26Y-80.42
X113.26Y-82.96
X113.26Y-85.5
X113.26Y-88.04
X113.26Y-90.58
X113.26Y-93.12
X113.26Y-95.66
X113.26Y-98.2
X113.26Y-100.74
X113.26Y-103.28
X113.26Y-105.82
X113.26Y-108.36
X113.26Y-110.9
X113.26Y-113.44
X113.26Y-115.98
X113.26Y-118.52
X113.26Y-121.06
X113.26Y-123.6
X113.26Y-126.14
X113.26Y-128.68
X113.26Y-131.22
X113.26Y-133.76
X113.26Y-136.3
X113.26Y-138.84
X113.26Y-141.38
X113.26Y-143.92
X113.26Y-146.46
X113.26Y-149.0
X115.8Y-60.1
X115.8Y-62.64
X115.8Y-65.18
X115.8Y-67.72
X115.8Y-70.26
X115.8Y-72.8
X115.8Y-75.34
X115.8Y-77.88
X115.8Y-80.42
X115.8Y-82.96
X115.8Y-85.5
X115.8Y-88.04
X115.8Y-90.58
X115.8Y-93.12
X115.8Y-95.66
X115.8Y-98.2
X115.8Y-100.74
X115.8Y-103.28
X115.8Y-105.82
X115.8Y-108.36
X115.8Y-110.9
X115.8Y-113.44
X115.8Y-115.98
X115.8Y-118.52
X115.8Y-121.06
X115.8Y-123.6
X115.8Y-126.14
X115.8Y-128.68
X115.8Y-131.22
X115.8Y-133.76
X115.8Y-136.3
X115.8Y-138.84
X115.8Y-141.38
X115.8Y-143.92
X115.8Y-146.46
X115.8Y-149.0
X166.6Y-61.1
X166.6Y-63.64
X166.6Y-66.18
X166.6Y-68.72
X166.6Y-71.26
X166.6Y-73.8
X166.6Y-76.34
X166.6Y-78.88
X166.6Y-81.42
X166.6Y-83.96
X169.14Y-61.1
X169.14Y-63.64
X169.14Y-66.18
X169.14Y-68.72
X169.14Y-71.26
X169.14Y-73.8
X169.14Y-76.34
X169.14Y-78.88
X169.14Y-81.42
X169.14Y-83.96
T3
X169.1Y-57.5
X153.9Y-108.3
X120.9Y-56.2
X167.9Y-132.5
X122.1Y-132.4
T0
M30
